<?xml version="1.0" encoding="utf-8"?>
<!-- Generator: Adobe Illustrator 25.3.1, SVG Export Plug-In . SVG Version: 6.00 Build 0)  -->
<svg version="1.1" id="圖層_1" xmlns="http://www.w3.org/2000/svg" xmlns:xlink="http://www.w3.org/1999/xlink" x="0px" y="0px"
	 viewBox="0 0 54 53" style="enable-background:new 0 0 54 53;" xml:space="preserve">
<style type="text/css">
	.st0{fill:#FFFFFF;}
</style>
<g>
	<path class="st0" d="M27,2.98C14.03,2.98,3.48,13.53,3.48,26.5S14.03,50.02,27,50.02S50.52,39.47,50.52,26.5S39.97,2.98,27,2.98z
		 M11.93,13.52h28.56v3.15H15.08v2.55h25.41v3.15H11.93V13.52z M27,47.69c-8.41,0-16.02-4.97-19.41-12.67l2.89-1.27
		C13.36,40.3,19.84,44.54,27,44.54c9.41,0,17.17-7.25,17.97-16.46h-5.31v-3.15h8.53v1.58C48.19,38.18,38.68,47.69,27,47.69z"/>
	<path d="M48.19,24.93v1.58c0,11.67-9.51,21.18-21.19,21.18c-8.41,0-16.02-4.97-19.41-12.67l2.89-1.27
		C13.36,40.3,19.84,44.54,27,44.54c9.41,0,17.17-7.25,17.97-16.46h-5.31v-3.15H48.19z"/>
	<polygon points="15.08,16.67 15.08,19.22 40.49,19.22 40.49,22.37 11.93,22.37 11.93,13.52 40.49,13.52 40.49,16.67 	"/>
	<path d="M27,0.02C12.4,0.02,0.52,11.9,0.52,26.5S12.4,52.98,27,52.98S53.48,41.1,53.48,26.5S41.6,0.02,27,0.02z M27,50.02
		c-12.97,0-23.52-10.55-23.52-23.52S14.03,2.98,27,2.98S50.52,13.53,50.52,26.5S39.97,50.02,27,50.02z"/>
</g>
</svg>
